<svg width="1091" height="200" viewBox="0 0 1091 200" fill="none" xmlns="http://www.w3.org/2000/svg">
<rect width="1094" height="200" rx="12" fill="#E2698D"/>
<g opacity="0.5">
<mask id="mask0_1_1662" style="mask-type:alpha" maskUnits="userSpaceOnUse" x="0" y="0" width="921" height="200">
<rect width="921" height="200" rx="12" fill="#E2698D"/>
</mask>
<g mask="url(#mask0_1_1662)">
<path opacity="0.5" fill-rule="evenodd" clip-rule="evenodd" d="M607 148C736.787 148 842 42.7869 842 -87C842 -216.787 736.787 -322 607 -322C477.213 -322 372 -216.787 372 -87C372 42.7869 477.213 148 607 148ZM607 64C690.395 64 758 -3.60501 758 -87C758 -170.395 690.395 -238 607 -238C523.605 -238 456 -170.395 456 -87C456 -3.60501 523.605 64 607 64Z" fill="#7C7F93"/>
<mask id="path-4-inside-1_1_1662" fill="white">
<path fill-rule="evenodd" clip-rule="evenodd" d="M1081 540C1210.79 540 1316 434.787 1316 305C1316 175.213 1210.79 70 1081 70C951.213 70 846 175.213 846 305C846 434.787 951.213 540 1081 540ZM1081 456C1164.39 456 1232 388.395 1232 305C1232 221.605 1164.39 154 1081 154C997.605 154 930 221.605 930 305C930 388.395 997.605 456 1081 456Z"/>
</mask>
<path d="M1315 305C1315 434.235 1210.23 539 1081 539V541C1211.34 541 1317 435.339 1317 305H1315ZM1081 71C1210.23 71 1315 175.765 1315 305H1317C1317 174.661 1211.34 69 1081 69V71ZM847 305C847 175.765 951.765 71 1081 71V69C950.661 69 845 174.661 845 305H847ZM1081 539C951.765 539 847 434.235 847 305H845C845 435.339 950.661 541 1081 541V539ZM1231 305C1231 387.843 1163.84 455 1081 455V457C1164.95 457 1233 388.947 1233 305H1231ZM1081 155C1163.84 155 1231 222.157 1231 305H1233C1233 221.053 1164.95 153 1081 153V155ZM931 305C931 222.157 998.157 155 1081 155V153C997.053 153 929 221.053 929 305H931ZM1081 455C998.157 455 931 387.843 931 305H929C929 388.947 997.053 457 1081 457V455Z" fill="white" mask="url(#path-4-inside-1_1_1662)"/>
<path fill-rule="evenodd" clip-rule="evenodd" d="M93 635C222.787 635 328 529.787 328 400C328 270.213 222.787 165 93 165C-36.7869 165 -142 270.213 -142 400C-142 529.787 -36.7869 635 93 635ZM93 551C176.395 551 244 483.395 244 400C244 316.605 176.395 249 93 249C9.605 249 -58 316.605 -58 400C-58 483.395 9.605 551 93 551Z" fill="#626375"/>
</g>
</g>
</svg>
